<svg width="24" height="24" fill="none" xmlns="http://www.w3.org/2000/svg" class="app-navigation__icon">
    <path d="M18.938 6.938A6.945 6.945 0 0 0 12 0a6.945 6.945 0 0 0-6.938 6.938 6.936 6.936 0 0 0 3.013 5.717 11.952 11.952 0 0 0-4.56 2.86A11.922 11.922 0 0 0 0 24h1.875c0-5.583 4.542-10.125 10.125-10.125a6.945 6.945 0 0 0 6.938-6.938zM12 12a5.068 5.068 0 0 1-5.063-5.063A5.068 5.068 0 0 1 12 1.875a5.068 5.068 0 0 1 5.063 5.063A5.068 5.068 0 0 1 12 12zm3.094 6.374H24v1.875h-8.906v-1.875zM24 14.625V16.5h-8.906v-1.875H24zm-8.906 7.5H24V24h-8.906v-1.875z"></path>
</svg>