<svg width="24" height="24" fill="none" xmlns="http://www.w3.org/2000/svg" class="app-navigation__icon">
    <g><path d="M23.042 7.33c-1.266-2.951-3.414-5.101-6.364-6.366A11.701 11.701 0 0 0 12.02.006c-1.627 0-3.185.325-4.672.958C4.373 2.232 2.212 4.374.945 7.329A11.672 11.672 0 0 0 0 11.987c0 1.627.31 3.192.945 4.67 1.267 2.956 3.428 5.108 6.403 6.38 1.487.632 3.045.957 4.672.957 1.627 0 3.173-.322 4.658-.958 2.95-1.268 5.099-3.429 6.364-6.38.637-1.483.958-3.042.958-4.669 0-1.629-.32-3.174-.958-4.658zM12.02 1.45c1.587 0 3.083.328 4.487.997L14.841 5.65a7.142 7.142 0 0 0-2.821-.591c-1.024 0-1.982.21-2.887.616L7.466 2.472a10.611 10.611 0 0 1 4.554-1.021zM2.44 16.448c-.655-1.363-.984-2.847-.984-4.46 0-1.562.315-3.031.958-4.409l3.202 1.666a7.126 7.126 0 0 0-.564 2.743c0 .972.197 1.901.59 2.794l-3.201 1.666zm9.58 6.102c-1.562 0-3.058-.341-4.514-1.024l1.653-3.2c.88.406 1.824.616 2.86.616.972 0 1.903-.196 2.796-.59l1.666 3.202c-1.378.669-2.874.996-4.461.996zm3.857-6.665c-1.063 1.075-2.349 1.613-3.857 1.613-1.51 0-2.815-.53-3.898-1.613-1.082-1.083-1.614-2.388-1.614-3.897 0-1.508.535-2.799 1.614-3.871C9.208 7.036 10.511 6.5 12.02 6.5c1.509 0 2.791.543 3.857 1.615 1.073 1.078 1.614 2.363 1.614 3.871 0 1.51-.538 2.808-1.614 3.897zm5.682.59l-3.201-1.665c.393-.893.59-1.839.59-2.822a6.8 6.8 0 0 0-.564-2.743l3.201-1.694c.643 1.42.958 2.9.958 4.437 0 1.602-.328 3.097-.984 4.488z"></path></g>
</svg>